<svg width="24" height="25" viewBox="0 0 24 25" fill="none" xmlns="http://www.w3.org/2000/svg">
<path d="M20.0694 16.3611C20.4894 15.2378 20.7174 14.0352 20.7174 12.7136C20.7174 11.7621 20.5854 10.8503 20.3574 10.0045C19.5774 10.2027 18.7614 10.3084 17.9094 10.3084C16.1645 10.3105 14.4448 9.85057 12.8952 8.96739C11.3456 8.08421 10.0115 6.80369 9.00537 5.23377C7.93012 8.10247 5.89943 10.4097 3.32937 11.6828C3.28137 12.0132 3.28137 12.37 3.28137 12.7136C3.28137 13.9753 3.50702 15.2246 3.94545 16.3903C4.38387 17.5559 5.02647 18.615 5.83657 19.5072C7.47264 21.3089 9.69162 22.3212 12.0054 22.3212C13.2654 22.3212 14.4774 22.0172 15.5694 21.4754C16.2534 22.9159 16.5654 23.6295 16.5414 23.6295C14.5734 24.3563 13.0494 24.7131 12.0054 24.7131C9.10137 24.7131 6.32937 23.4577 4.28937 21.1979C3.04743 19.8366 2.1249 18.163 1.60137 16.3214H0.00537109V10.3084H1.31337C1.70966 8.18411 2.62076 6.21753 3.95 4.6174C5.27923 3.01726 6.97702 1.84326 8.86321 1.21996C10.7494 0.596664 12.7536 0.547321 14.6632 1.07717C16.5728 1.60702 18.3165 2.69629 19.7094 4.22941C21.2211 5.88869 22.2525 8.00408 22.6734 10.3084H24.0054V16.3214H23.9334L19.6614 20.6428L13.3014 19.8499V17.6429H19.0974L20.0694 16.3611ZM8.72937 12.4097C9.08937 12.4097 9.43737 12.5683 9.68937 12.859C9.94263 13.1402 10.0847 13.5202 10.0847 13.9162C10.0847 14.3123 9.94263 14.6923 9.68937 14.9735C9.43737 15.251 9.08937 15.4096 8.72937 15.4096C7.97337 15.4096 7.36137 14.7488 7.36137 13.9162C7.36137 13.0837 7.97337 12.4097 8.72937 12.4097ZM15.2694 12.4097C16.0254 12.4097 16.6254 13.0837 16.6254 13.9162C16.6254 14.7488 16.0254 15.4096 15.2694 15.4096C14.5134 15.4096 13.9014 14.7488 13.9014 13.9162C13.9014 13.5167 14.0455 13.1335 14.302 12.8509C14.5586 12.5684 14.9066 12.4097 15.2694 12.4097Z" fill="black"/>
</svg>
