<svg width="24" height="24" viewBox="0 0 24 24" fill="none" xmlns="http://www.w3.org/2000/svg">
<path d="M22.8 11.5752V22.8C22.8 23.1183 22.6736 23.4235 22.4485 23.6485C22.2235 23.8736 21.9183 24 21.6 24H2.4C2.08174 24 1.77652 23.8736 1.55148 23.6485C1.32643 23.4235 1.2 23.1183 1.2 22.8V11.5752C0.425184 10.6992 -0.00173193 9.56953 5.28098e-06 8.4V1.2C5.28098e-06 0.88174 0.126433 0.576515 0.351477 0.351472C0.576521 0.126428 0.881745 0 1.2 0H22.8C23.1183 0 23.4235 0.126428 23.6485 0.351472C23.8736 0.576515 24 0.88174 24 1.2V8.4C24.0012 9.56943 23.5743 10.6989 22.8 11.5752ZM14.4 8.4C14.4 8.08174 14.5264 7.77652 14.7515 7.55147C14.9765 7.32643 15.2817 7.2 15.6 7.2C15.9183 7.2 16.2235 7.32643 16.4485 7.55147C16.6736 7.77652 16.8 8.08174 16.8 8.4C16.8 9.03652 17.0529 9.64697 17.5029 10.0971C17.953 10.5471 18.5635 10.8 19.2 10.8C19.8365 10.8 20.447 10.5471 20.8971 10.0971C21.3471 9.64697 21.6 9.03652 21.6 8.4V2.4H2.4V8.4C2.4 9.03652 2.65286 9.64697 3.10295 10.0971C3.55304 10.5471 4.16348 10.8 4.8 10.8C5.43652 10.8 6.04697 10.5471 6.49706 10.0971C6.94715 9.64697 7.2 9.03652 7.2 8.4C7.2 8.08174 7.32643 7.77652 7.55148 7.55147C7.77652 7.32643 8.08174 7.2 8.4 7.2C8.71826 7.2 9.02349 7.32643 9.24853 7.55147C9.47357 7.77652 9.6 8.08174 9.6 8.4C9.6 9.03652 9.85286 9.64697 10.3029 10.0971C10.753 10.5471 11.3635 10.8 12 10.8C12.6365 10.8 13.247 10.5471 13.6971 10.0971C14.1471 9.64697 14.4 9.03652 14.4 8.4Z" fill="black"/>
</svg>
