<svg width="23" height="23" viewBox="0 0 23 23" fill="none" xmlns="http://www.w3.org/2000/svg">
<path fill-rule="evenodd" clip-rule="evenodd" d="M0.680847 10.2778C0.680847 5.72355 0.680847 3.44584 2.09627 2.03163C3.51048 0.616211 5.78819 0.616211 10.3424 0.616211H12.7578C17.312 0.616211 19.5897 0.616211 21.0039 2.03163C22.4194 3.44584 22.4194 5.72355 22.4194 10.2778V12.6932C22.4194 17.2474 22.4194 19.5251 21.0039 20.9393C19.5897 22.3547 17.312 22.3547 12.7578 22.3547H10.3424C5.78819 22.3547 3.51048 22.3547 2.09627 20.9393C0.680847 19.5251 0.680847 17.2474 0.680847 12.6932V10.2778ZM18.7963 6.05084C18.7963 6.53129 18.6054 6.99206 18.2657 7.33179C17.926 7.67152 17.4652 7.86238 16.9847 7.86238C16.5043 7.86238 16.0435 7.67152 15.7038 7.33179C15.364 6.99206 15.1732 6.53129 15.1732 6.05084C15.1732 5.57039 15.364 5.10962 15.7038 4.76989C16.0435 4.43016 16.5043 4.2393 16.9847 4.2393C17.4652 4.2393 17.926 4.43016 18.2657 4.76989C18.6054 5.10962 18.7963 5.57039 18.7963 6.05084ZM13.9655 12.6932C13.9655 13.3338 13.711 13.9481 13.258 14.4011C12.8051 14.8541 12.1907 15.1086 11.5501 15.1086C10.9095 15.1086 10.2951 14.8541 9.84217 14.4011C9.38919 13.9481 9.13472 13.3338 9.13472 12.6932C9.13472 12.0526 9.38919 11.4382 9.84217 10.9852C10.2951 10.5323 10.9095 10.2778 11.5501 10.2778C12.1907 10.2778 12.8051 10.5323 13.258 10.9852C13.711 11.4382 13.9655 12.0526 13.9655 12.6932ZM16.3809 12.6932C16.3809 13.9744 15.8719 15.2031 14.966 16.109C14.06 17.015 12.8313 17.5239 11.5501 17.5239C10.2689 17.5239 9.04017 17.015 8.13423 16.109C7.22828 15.2031 6.71932 13.9744 6.71932 12.6932C6.71932 11.412 7.22828 10.1832 8.13423 9.27729C9.04017 8.37134 10.2689 7.86238 11.5501 7.86238C12.8313 7.86238 14.06 8.37134 14.966 9.27729C15.8719 10.1832 16.3809 11.412 16.3809 12.6932Z" fill="white"/>
</svg>
