<svg width="25" height="25" viewBox="0 0 25 25" fill="none" xmlns="http://www.w3.org/2000/svg">
<path fill-rule="evenodd" clip-rule="evenodd" d="M2.56012 11.6924C2.56012 6.83538 7.21612 3.19238 12.5601 3.19238C17.9041 3.19238 22.5601 6.83538 22.5601 11.6924C22.5601 16.5494 17.9041 20.1924 12.5601 20.1924C12.0351 20.1924 11.5181 20.1584 11.0141 20.0924L8.11412 22.0244C7.94957 22.134 7.75622 22.1923 7.55851 22.1921C7.3608 22.1918 7.16761 22.133 7.00333 22.023C6.83906 21.913 6.71109 21.7567 6.63558 21.574C6.56007 21.3913 6.54043 21.1903 6.57912 20.9964L7.02412 18.7754C4.38812 17.2824 2.56012 14.7094 2.56012 11.6924ZM10.5601 7.19238C10.8253 7.19238 11.0797 7.29774 11.2672 7.48528C11.4548 7.67281 11.5601 7.92717 11.5601 8.19238V15.1924C11.5601 15.4576 11.4548 15.712 11.2672 15.8995C11.0797 16.087 10.8253 16.1924 10.5601 16.1924C10.2949 16.1924 10.0405 16.087 9.85301 15.8995C9.66548 15.712 9.56012 15.4576 9.56012 15.1924V8.19238C9.56012 7.92717 9.66548 7.67281 9.85301 7.48528C10.0405 7.29774 10.2949 7.19238 10.5601 7.19238ZM11.5601 12.6924C11.5601 12.4714 11.6331 12.2504 11.7801 12.0674L13.7801 9.56738C13.9488 9.3698 14.1878 9.24564 14.4465 9.22119C14.7051 9.19673 14.9631 9.27391 15.1659 9.43637C15.3686 9.59883 15.5002 9.83382 15.5327 10.0916C15.5652 10.3494 15.4962 10.6097 15.3401 10.8174L13.8401 12.6924L15.3401 14.5674C15.4271 14.6692 15.4927 14.7875 15.5331 14.9153C15.5735 15.043 15.5878 15.1775 15.5752 15.3109C15.5626 15.4442 15.5233 15.5737 15.4597 15.6916C15.3961 15.8095 15.3095 15.9134 15.2049 15.9971C15.1004 16.0809 14.9801 16.1428 14.8512 16.1792C14.7223 16.2155 14.5874 16.2257 14.4545 16.2089C14.3216 16.1921 14.1934 16.1488 14.0776 16.0816C13.9617 16.0143 13.8606 15.9245 13.7801 15.8174L11.7801 13.3174C11.6377 13.1402 11.5601 12.9197 11.5601 12.6924Z" fill="black"/>
</svg>
