<svg width="25" height="25" viewBox="0 0 25 25" fill="none" xmlns="http://www.w3.org/2000/svg">
<path d="M9.86164 10.342H12.5484C12.7938 10.342 13.0291 10.2445 13.2027 10.071C13.3762 9.89749 13.4736 9.66216 13.4736 9.41678C13.4736 9.1714 13.3762 8.93608 13.2027 8.76257C13.0291 8.58906 12.7938 8.49158 12.5484 8.49158H9.86164C9.61626 8.49158 9.38093 8.58906 9.20742 8.76257C9.03391 8.93608 8.93644 9.1714 8.93644 9.41678C8.93644 9.66216 9.03391 9.89749 9.20742 10.071C9.38093 10.2445 9.61626 10.342 9.86164 10.342ZM21.5232 0.192383H3.67564C2.86091 0.195543 2.08045 0.520593 1.50435 1.0967C0.928247 1.6728 0.603197 2.45326 0.600037 3.26798V21.1156C0.602881 21.9305 0.927792 22.7113 1.50393 23.2876C2.08007 23.864 2.8607 24.1892 3.67564 24.1924H21.5232C22.3384 24.1895 23.1193 23.8645 23.6957 23.2881C24.2721 22.7117 24.5972 21.9307 24.6 21.1156V3.26798C24.5969 2.45305 24.2717 1.67241 23.6953 1.09628C23.1189 0.520138 22.3382 0.195227 21.5232 0.192383ZM20.2368 11.806L20.2128 15.016C20.2034 16.2964 19.6892 17.5214 18.782 18.4251C17.8747 19.3287 16.6477 19.838 15.3672 19.8424H9.79924C8.51734 19.8396 7.28847 19.3304 6.38023 18.4257C5.47199 17.5211 4.95795 16.2943 4.95004 15.0124V9.37838C4.95731 8.09555 5.47113 6.86754 6.37959 5.96177C7.28805 5.05601 8.51759 4.54584 9.80044 4.54238H13.188C13.9686 4.67789 14.7093 4.985 15.3568 5.44154C16.0042 5.89808 16.5423 6.49267 16.932 7.18238C17.1991 7.68929 17.3476 8.25016 17.3664 8.82278C17.448 9.42998 17.49 9.87998 17.7624 10.1308C18.1464 10.4776 19.572 10.2436 19.854 10.4644L20.0676 10.6324L20.1996 10.8976L20.2416 11.1112L20.2368 11.806ZM15.3204 14.0416H9.86164C9.62294 14.0416 9.39402 14.1364 9.22524 14.3052C9.05646 14.474 8.96164 14.7029 8.96164 14.9416C8.96164 15.1803 9.05646 15.4092 9.22524 15.578C9.39402 15.7468 9.62294 15.8416 9.86164 15.8416H15.3204C15.5591 15.8416 15.7881 15.7468 15.9568 15.578C16.1256 15.4092 16.2204 15.1803 16.2204 14.9416C16.2204 14.7029 16.1256 14.474 15.9568 14.3052C15.7881 14.1364 15.5591 14.0416 15.3204 14.0416Z" fill="black"/>
</svg>
