<svg width="24" height="25" viewBox="0 0 24 25" fill="none" xmlns="http://www.w3.org/2000/svg">
<path fill-rule="evenodd" clip-rule="evenodd" d="M6.10352e-05 10.859C6.10352e-05 5.83105 6.08762e-05 3.31638 1.56273 1.75505C3.12406 0.192383 5.63873 0.192383 10.6667 0.192383H13.3334C18.3614 0.192383 20.8761 0.192383 22.4374 1.75505C24.0001 3.31638 24.0001 5.83105 24.0001 10.859V13.5257C24.0001 18.5537 24.0001 21.0684 22.4374 22.6297C20.8761 24.1924 18.3614 24.1924 13.3334 24.1924H10.6667C5.63873 24.1924 3.12406 24.1924 1.56273 22.6297C6.08762e-05 21.0684 6.10352e-05 18.5537 6.10352e-05 13.5257V10.859ZM20.0001 6.19238C20.0001 6.72282 19.7893 7.23152 19.4143 7.6066C19.0392 7.98167 18.5305 8.19238 18.0001 8.19238C17.4696 8.19238 16.9609 7.98167 16.5858 7.6066C16.2108 7.23152 16.0001 6.72282 16.0001 6.19238C16.0001 5.66195 16.2108 5.15324 16.5858 4.77817C16.9609 4.4031 17.4696 4.19238 18.0001 4.19238C18.5305 4.19238 19.0392 4.4031 19.4143 4.77817C19.7893 5.15324 20.0001 5.66195 20.0001 6.19238ZM14.6667 13.5257C14.6667 14.233 14.3858 14.9112 13.8857 15.4113C13.3856 15.9114 12.7073 16.1924 12.0001 16.1924C11.2928 16.1924 10.6145 15.9114 10.1144 15.4113C9.61435 14.9112 9.3334 14.233 9.3334 13.5257C9.3334 12.8185 9.61435 12.1402 10.1144 11.6401C10.6145 11.14 11.2928 10.859 12.0001 10.859C12.7073 10.859 13.3856 11.14 13.8857 11.6401C14.3858 12.1402 14.6667 12.8185 14.6667 13.5257ZM17.3334 13.5257C17.3334 14.9402 16.7715 16.2968 15.7713 17.297C14.7711 18.2971 13.4145 18.8591 12.0001 18.8591C10.5856 18.8591 9.22902 18.2971 8.22882 17.297C7.22863 16.2968 6.66673 14.9402 6.66673 13.5257C6.66673 12.1112 7.22863 10.7547 8.22882 9.75448C9.22902 8.75429 10.5856 8.19238 12.0001 8.19238C13.4145 8.19238 14.7711 8.75429 15.7713 9.75448C16.7715 10.7547 17.3334 12.1112 17.3334 13.5257Z" fill="black"/>
</svg>
