<svg width="25" height="25" viewBox="0 0 25 25" fill="none" xmlns="http://www.w3.org/2000/svg">
<path d="M9.76013 17.3352L15.9881 12.1924L9.76013 7.04953V17.3352ZM23.6321 3.91238C23.7881 4.7181 23.8961 5.7981 23.9681 7.16953C24.0521 8.54095 24.0881 9.72381 24.0881 10.7524L24.1601 12.1924C24.1601 15.9467 23.9681 18.7067 23.6321 20.4724C23.3321 22.0152 22.6361 23.0095 21.5561 23.4381C20.9921 23.661 19.9601 23.8152 18.3761 23.9181C16.8161 24.0381 15.3881 24.0895 14.0681 24.0895L12.1601 24.1924C7.13213 24.1924 4.00013 23.9181 2.76413 23.4381C1.68413 23.0095 0.988126 22.0152 0.688126 20.4724C0.532126 19.6667 0.424126 18.5867 0.352126 17.2152C0.268126 15.8438 0.232126 14.661 0.232126 13.6324L0.160126 12.1924C0.160126 8.4381 0.352126 5.6781 0.688126 3.91238C0.988126 2.36953 1.68413 1.37524 2.76413 0.946669C3.32813 0.723812 4.36013 0.569525 5.94413 0.466668C7.50413 0.346668 8.93213 0.29524 10.2521 0.29524L12.1601 0.192383C17.1881 0.192383 20.3201 0.466669 21.5561 0.946669C22.6361 1.37524 23.3321 2.36953 23.6321 3.91238Z" fill="black"/>
</svg>
